<svg xmlns="http://www.w3.org/2000/svg" width="1200" height="780" viewBox="0 0 1200 780">
  <defs>
    <linearGradient id="bg2" x1="0" y1="0" x2="1" y2="1">
      <stop offset="0" stop-color="#071018"/>
      <stop offset="1" stop-color="#0b1511"/>
    </linearGradient>
    <radialGradient id="glow2" cx="70%" cy="30%" r="70%">
      <stop offset="0" stop-color="#ffd255" stop-opacity=".18"/>
      <stop offset="1" stop-color="#ffd255" stop-opacity="0"/>
    </radialGradient>
  </defs>

  <rect width="1200" height="780" rx="28" fill="url(#bg2)"/>
  <rect width="1200" height="780" rx="28" fill="url(#glow2)"/>

  <g transform="translate(120,140)">
    <rect x="0" y="0" width="460" height="500" rx="28" fill="#ffffff" fill-opacity=".04" stroke="#ffffff" stroke-opacity=".10"/>
    <path d="M120 120l110 0 40 60-40 60-110 0-40-60z" fill="#2fe18a" fill-opacity=".16"/>
    <path d="M300 140l120 0 36 50-36 50-120 0-36-50z" fill="#ffd255" fill-opacity=".12"/>
    <circle cx="230" cy="300" r="90" fill="#2fe18a" fill-opacity=".10"/>
    <circle cx="230" cy="300" r="52" fill="#2fe18a" fill-opacity=".22"/>
    <rect x="80" y="410" width="300" height="46" rx="16" fill="#ffffff" fill-opacity=".08"/>
    <rect x="110" y="424" width="240" height="18" rx="9" fill="#ffffff" fill-opacity=".14"/>
  </g>

  <g transform="translate(680,100)">
    <rect x="0" y="0" width="380" height="600" rx="48" fill="#0b0f14" stroke="#ffffff" stroke-opacity=".12" stroke-width="2"/>
    <rect x="20" y="70" width="340" height="510" rx="28" fill="#101b1f" fill-opacity=".9" stroke="#ffffff" stroke-opacity=".10" stroke-width="1.6"/>
    <rect x="120" y="24" width="140" height="20" rx="10" fill="#ffffff" fill-opacity=".08"/>

    <g fill="#ffffff" fill-opacity=".10">
      <rect x="60" y="120" width="280" height="48" rx="16"/>
      <rect x="60" y="184" width="280" height="48" rx="16"/>
      <rect x="60" y="248" width="280" height="48" rx="16"/>
      <rect x="60" y="312" width="280" height="48" rx="16"/>
    </g>

    <circle cx="120" cy="144" r="14" fill="#2fe18a" fill-opacity=".30"/>
    <circle cx="120" cy="208" r="14" fill="#ffd255" fill-opacity=".22"/>
    <circle cx="120" cy="272" r="14" fill="#2fe18a" fill-opacity=".22"/>
    <circle cx="120" cy="336" r="14" fill="#ffd255" fill-opacity=".18"/>

    <rect x="90" y="520" width="200" height="44" rx="18" fill="#2fe18a" fill-opacity=".20" stroke="#2fe18a" stroke-opacity=".35"/>
  </g>
</svg>
