<svg xmlns="http://www.w3.org/2000/svg" width="1200" height="780" viewBox="0 0 1200 780">
  <defs>
    <linearGradient id="bg" x1="0" y1="0" x2="1" y2="1">
      <stop offset="0" stop-color="#0b1511"/>
      <stop offset="1" stop-color="#081018"/>
    </linearGradient>
    <radialGradient id="glow" cx="30%" cy="25%" r="70%">
      <stop offset="0" stop-color="#2fe18a" stop-opacity=".35"/>
      <stop offset="1" stop-color="#2fe18a" stop-opacity="0"/>
    </radialGradient>
    <linearGradient id="card" x1="0" y1="0" x2="0" y2="1">
      <stop offset="0" stop-color="#0f1f1a" stop-opacity=".92"/>
      <stop offset="1" stop-color="#0a1217" stop-opacity=".92"/>
    </linearGradient>
  </defs>

  <rect width="1200" height="780" rx="28" fill="url(#bg)"/>
  <rect width="1200" height="780" rx="28" fill="url(#glow)"/>

  <g opacity=".55">
    <circle cx="1050" cy="120" r="180" fill="#ffd255" opacity=".12"/>
    <circle cx="980" cy="90" r="120" fill="#2fe18a" opacity=".10"/>
  </g>

  <!-- phone -->
  <g transform="translate(150,90)">
    <rect x="0" y="0" width="420" height="600" rx="48" fill="#0b0f14" stroke="#ffffff" stroke-opacity=".12" stroke-width="2"/>
    <rect x="20" y="70" width="380" height="510" rx="28" fill="url(#card)" stroke="#ffffff" stroke-opacity=".10" stroke-width="1.6"/>
    <rect x="140" y="24" width="140" height="20" rx="10" fill="#ffffff" fill-opacity=".08"/>
    <circle cx="210" cy="220" r="64" fill="#2fe18a" fill-opacity=".16"/>
    <path d="M210 250c-52 0-92-40-92-92s40-92 92-92 92 40 92 92-40 92-92 92z" fill="#2fe18a" fill-opacity=".18"/>
    <circle cx="185" cy="190" r="20" fill="#eafff3"/>
    <circle cx="235" cy="190" r="20" fill="#eafff3"/>
    <circle cx="185" cy="195" r="9" fill="#0b0f14"/>
    <circle cx="235" cy="195" r="9" fill="#0b0f14"/>
    <path d="M190 230c10 14 30 14 40 0" stroke="#eafff3" stroke-opacity=".65" stroke-width="8" stroke-linecap="round" fill="none"/>

    <g fill="#ffffff" fill-opacity=".10">
      <rect x="60" y="340" width="300" height="44" rx="14"/>
      <rect x="60" y="402" width="300" height="44" rx="14"/>
      <rect x="60" y="464" width="300" height="44" rx="14"/>
    </g>

    <rect x="120" y="528" width="180" height="44" rx="18" fill="#2fe18a" fill-opacity=".20" stroke="#2fe18a" stroke-opacity=".35"/>
  </g>

  <!-- side icons -->
  <g transform="translate(720,170)" opacity=".95">
    <rect x="0" y="0" width="380" height="110" rx="22" fill="#ffffff" fill-opacity=".04" stroke="#ffffff" stroke-opacity=".10"/>
    <circle cx="64" cy="55" r="28" fill="#2fe18a" fill-opacity=".18"/>
    <path d="M58 62c-10 0-18-8-18-18s8-18 18-18 18 8 18 18-8 18-18 18z" fill="#2fe18a" fill-opacity=".20"/>
    <rect x="120" y="30" width="220" height="16" rx="8" fill="#ffffff" fill-opacity=".18"/>
    <rect x="120" y="58" width="180" height="14" rx="7" fill="#ffffff" fill-opacity=".12"/>
    <rect x="120" y="80" width="140" height="14" rx="7" fill="#ffffff" fill-opacity=".10"/>

    <rect x="0" y="150" width="380" height="110" rx="22" fill="#ffffff" fill-opacity=".04" stroke="#ffffff" stroke-opacity=".10"/>
    <circle cx="64" cy="205" r="28" fill="#ffd255" fill-opacity=".14"/>
    <rect x="120" y="180" width="210" height="16" rx="8" fill="#ffffff" fill-opacity=".18"/>
    <rect x="120" y="208" width="170" height="14" rx="7" fill="#ffffff" fill-opacity=".12"/>
    <rect x="120" y="230" width="150" height="14" rx="7" fill="#ffffff" fill-opacity=".10"/>
  </g>
</svg>
