<svg xmlns="http://www.w3.org/2000/svg" width="960" height="520" viewBox="0 0 960 520">
  <defs>
    <linearGradient id="bg" x1="0" y1="0" x2="1" y2="1">
      <stop offset="0" stop-color="#fff6ea"/>
      <stop offset="1" stop-color="#f1fff6"/>
    </linearGradient>
    <filter id="s" x="-20%" y="-20%" width="140%" height="140%">
      <feDropShadow dx="0" dy="10" stdDeviation="12" flood-color="#0f172a" flood-opacity=".14"/>
    </filter>
  </defs>
  <rect width="960" height="520" rx="32" fill="url(#bg)"/>
  <g filter="url(#s)" transform="translate(180,110)">
    <rect x="80" y="160" width="320" height="170" rx="22" fill="#c0872b" opacity=".25"/>
    <rect x="90" y="140" width="340" height="210" rx="24" fill="#f6c453"/>
    <rect x="110" y="165" width="300" height="170" rx="20" fill="#ffd77a"/>
    <rect x="90" y="120" width="340" height="70" rx="22" fill="#eab14a"/>
    <circle cx="260" cy="200" r="36" fill="#b8791b" opacity=".35"/>
    <circle cx="260" cy="200" r="22" fill="#fff" opacity=".35"/>

    <g transform="translate(460,130)">
      <circle cx="70" cy="140" r="56" fill="#ffd77a"/>
      <circle cx="70" cy="140" r="44" fill="#f6c453"/>
      <circle cx="70" cy="140" r="30" fill="#ffd77a"/>
      <path d="M55 140c0-10 8-18 18-18h6" stroke="#b8791b" stroke-width="8" stroke-linecap="round"/>
      <path d="M55 140c0 10 8 18 18 18h6" stroke="#b8791b" stroke-width="8" stroke-linecap="round"/>
      <circle cx="150" cy="210" r="32" fill="#ffd77a" opacity=".9"/>
      <circle cx="210" cy="170" r="24" fill="#ffd77a" opacity=".85"/>
    </g>
  </g>
</svg>
