<svg xmlns="http://www.w3.org/2000/svg" width="960" height="520" viewBox="0 0 960 520">
  <defs>
    <linearGradient id="bg" x1="0" y1="0" x2="1" y2="1">
      <stop offset="0" stop-color="#e9fff0"/>
      <stop offset="1" stop-color="#f7fbff"/>
    </linearGradient>
    <filter id="s" x="-20%" y="-20%" width="140%" height="140%">
      <feDropShadow dx="0" dy="10" stdDeviation="12" flood-color="#0f172a" flood-opacity=".14"/>
    </filter>
  </defs>
  <rect width="960" height="520" rx="32" fill="url(#bg)"/>
  <g filter="url(#s)" transform="translate(150,85)">
    <circle cx="220" cy="210" r="150" fill="#2f7a3f" opacity=".12"/>
    <path d="M220 360c-90 0-160-52-160-132 0-56 28-98 70-117 20-9 45-14 70-14h40c25 0 50 5 70 14 42 19 70 61 70 117 0 80-70 132-160 132z" fill="#6fe08a"/>
    <ellipse cx="240" cy="260" rx="80" ry="62" fill="#dff9d8"/>
    <circle cx="180" cy="170" r="34" fill="#fff"/>
    <circle cx="180" cy="175" r="14" fill="#0f172a"/>
    <circle cx="300" cy="170" r="34" fill="#fff"/>
    <circle cx="300" cy="175" r="14" fill="#0f172a"/>
    <path d="M200 220c22 26 58 26 80 0" fill="none" stroke="#0f172a" stroke-opacity=".35" stroke-width="10" stroke-linecap="round"/>
    <path d="M420 180c40 0 70 28 70 64 0 48-50 78-70 96-20-18-70-48-70-96 0-36 30-64 70-64z" fill="#ff6b6b" opacity=".85"/>
  </g>
</svg>
